<svg width="240" height="390" viewBox="0 0 240 390" fill="none" xmlns="http://www.w3.org/2000/svg"><path d="M120 70C175.228 70 220 114.772 220 170C220 225.228 175.228 270 120 270C64.7715 270 20 225.228 20 170C20 114.772 64.7715 70 120 70ZM120 90C75.8172 90 40 125.817 40 170C40 214.183 75.8172 250 120 250C164.183 250 200 214.183 200 170C200 125.817 164.183 90 120 90Z" fill="#81BFB8"/><path d="M130 220H110V370H130V220Z" fill="#F47B68"/><path d="M195 285H45V305H195V285Z" fill="#F47B68"/><path d="M150 20H170C170 47.6142 147.614 70 120 70C92.3858 70 70 47.6142 70 20H90C90 36.5685 103.431 50 120 50C136.569 50 150 36.5685 150 20Z" fill="#F47B68"/><path d="M206.603 220H33.3975L120 70L206.603 220ZM68.0381 200H171.962L120 110L68.0381 200Z" fill="#F47B68"/><path d="M219.505 160C219.831 163.289 220 166.625 220 170C220 173.375 219.831 176.711 219.505 180H20.4951C20.1686 176.711 20 173.375 20 170C20 166.625 20.1686 163.289 20.4951 160H219.505Z" fill="#81BFB8"/></svg>